<svg width="24" height="25" viewBox="0 0 24 25" fill="none" xmlns="http://www.w3.org/2000/svg">
<path fill-rule="evenodd" clip-rule="evenodd" d="M12.0001 4.5C11.5583 4.5 11.2001 4.85817 11.2001 5.3V11.7001H4.8C4.35817 11.7001 4 12.0583 4 12.5001C4 12.9419 4.35817 13.3001 4.8 13.3001H11.2001V19.7C11.2001 20.1418 11.5583 20.5 12.0001 20.5C12.4419 20.5 12.8001 20.1418 12.8001 19.7V13.3001H19.2C19.6418 13.3001 20 12.9419 20 12.5001C20 12.0583 19.6418 11.7001 19.2 11.7001H12.8001V5.3C12.8001 4.85817 12.4419 4.5 12.0001 4.5Z" fill="#B8B8B8"/>
</svg>
