<svg width="24" height="24" viewBox="0 0 24 24" fill="none" xmlns="http://www.w3.org/2000/svg">
<g clip-path="url(#clip0_515_3020)">
<rect width="24" height="24" rx="12" fill="#D1D1D1"/>
<g clip-path="url(#clip1_515_3020)">
<path d="M12 14C14.21 14 16 12.21 16 10C16 7.79 14.21 6 12 6C9.79 6 8 7.79 8 10C8 12.21 9.79 14 12 14ZM12 16C9.33 16 4 17.34 4 20V21C4 21.55 4.45 22 5 22L12 29L19 22C19.55 22 20 21.55 20 21V20C20 17.34 14.67 16 12 16Z" fill="#F2F2F2"/>
</g>
</g>
<defs>
<clipPath id="clip0_515_3020">
<rect width="24" height="24" rx="12" fill="white"/>
</clipPath>
<clipPath id="clip1_515_3020">
<rect width="24" height="24" fill="white" transform="translate(0 2)"/>
</clipPath>
</defs>
</svg>
