<svg width="18" height="18" viewBox="0 0 18 18" fill="none" xmlns="http://www.w3.org/2000/svg">
<path fill-rule="evenodd" clip-rule="evenodd" d="M14.9221 7.46027C14.9221 3.33991 11.5819 0 7.46107 0C3.34026 0 0 3.33991 0 7.46027C0 11.5806 3.34026 14.9205 7.46107 14.9205C9.07572 14.9205 10.5765 14.4036 11.8025 13.5229L15.9644 17.674C16.4001 18.1089 17.1058 18.1086 17.5411 17.6734L17.6733 17.5411C18.1094 17.105 18.1088 16.3978 17.6719 15.9625L13.5096 11.8217C14.3994 10.592 14.9221 9.08371 14.9221 7.46027ZM2.29571 7.46027C2.29571 10.3181 4.6029 12.6251 7.46107 12.6251C10.3192 12.6251 12.6264 10.3181 12.6264 7.46027C12.6264 4.60241 10.3192 2.29547 7.46107 2.29547C4.6029 2.29547 2.29571 4.60241 2.29571 7.46027Z" fill="#757575"/>
</svg>
